<svg width="512" height="512" viewBox="0 0 512 512" fill="none" xmlns="http://www.w3.org/2000/svg">
<rect width="512" height="512" rx="88" fill="#151515"/>
<path d="M193.737 270.353L174.375 311.532L295.728 311.735L224.155 137H197.182L111.312 311.622H155.058L212.042 193.939L242.549 270.353H193.737Z" fill="#F0F0F0"/>
<path d="M331.976 341.004H330.941L328.712 349.334H329.59C331.954 349.334 332.742 348.726 333.417 345.957L333.89 344.066C334.43 341.972 334.205 341.004 331.976 341.004ZM310.475 340.733C309.192 340.733 308.381 341.611 307.863 343.615L303.495 359.871C303.09 361.537 303.135 363.023 304.936 363.023C306.535 363.023 307.188 361.829 307.706 360.006L312.028 343.705C312.501 341.949 312.231 340.733 310.475 340.733ZM202.18 340.733C200.897 340.733 200.086 341.611 199.569 343.615L195.201 359.871C194.796 361.537 194.841 363.023 196.642 363.023C198.24 363.023 198.893 361.829 199.411 360.006L203.734 343.705C204.207 341.949 203.936 340.733 202.18 340.733ZM114.216 354.67H117.211C117.751 351 118.629 344.516 119.034 341.611H118.787C118.044 343.93 115.702 350.64 114.216 354.67ZM354.13 340.733C352.847 340.733 352.037 341.611 351.519 343.615L347.151 359.871C346.746 361.537 346.791 363.023 348.592 363.023C350.19 363.023 350.843 361.829 351.361 360.006L355.684 343.705C356.157 341.949 355.887 340.733 354.13 340.733ZM390.649 227.238H338.933V179.079H402.356L421.696 137.022H322.588C302.437 137 286.114 153.345 286.137 173.473L286.227 238.225C286.249 258.33 302.55 274.608 322.655 274.608H370.994V327.382H108.34L89 374.753H390.671C408.796 374.753 423.475 360.073 423.475 341.949V260.042C423.475 241.917 408.796 227.238 390.671 227.238H390.649ZM115.387 367.323L116.423 359.781H112.257L109.421 367.323H102.621L115.5 336.433H125.541L121.916 367.323H115.387ZM135.537 367.323L136.1 353.657C136.145 352.126 136.37 347.263 136.506 346.249H136.303C135.56 349.897 134.142 357.169 132.836 362.055L131.462 367.346H125.451L133.759 336.456H141.166L140.716 349.987C140.648 351.833 140.356 355.953 140.265 357.304H140.423C141.234 353.049 142.675 345.867 143.8 341.499L145.151 336.456H151.275L142.922 367.346H135.56L135.537 367.323ZM156.904 367.323H150.419L157.376 341.521H152.491L153.909 336.433H170.232L168.836 341.521H163.906L156.949 367.323H156.904ZM174.96 367.323L178.675 353.567H174.555L170.84 367.323H164.356L172.709 336.433H179.193L175.951 348.478H180.071L183.313 336.433H189.842L181.534 367.323H174.938H174.96ZM195.786 367.773C189.55 367.773 187.411 364.441 188.942 358.745L192.949 343.638C194.435 338.032 197.835 335.938 202.788 335.938C208.867 335.938 211.591 339.135 209.948 345.101L206.12 359.375C204.589 365.072 202.18 367.751 195.809 367.751L195.786 367.773ZM226.541 367.323H219.179L219.742 353.657C219.787 352.126 220.012 347.263 220.147 346.249H219.944C219.201 349.897 217.783 357.169 216.477 362.055L215.104 367.346H209.092L217.4 336.456H224.807L224.357 349.987C224.289 351.833 223.997 355.953 223.907 357.304H224.064C224.875 353.049 226.316 345.867 227.441 341.499L228.792 336.456H234.916L226.563 367.346L226.541 367.323ZM244.755 356.381C244.598 356.741 244.485 357.034 244.305 357.732L241.671 367.323H235.186L237.888 357.417C238.001 356.899 238.136 356.111 238.091 355.661L237.303 336.433H243.9C243.674 339.945 243.449 346.812 243.089 349.829H243.292C244.688 346.542 247.457 340.891 249.573 336.433H256.305L244.778 356.404L244.755 356.381ZM280.148 344.583L279.968 345.236H273.799L274.091 344.133C274.564 342.084 274.564 340.666 272.966 340.666C271.93 340.666 271.187 341.274 270.827 342.85C270.354 345.034 270.669 346.002 272.943 348.501C277.356 353.319 278.302 355.773 277.063 360.546C275.713 365.544 272.808 367.818 267.247 367.818C260.808 367.818 258.917 364.441 260.335 359.195L260.515 358.452H266.954L266.594 359.938C266.121 362.077 266.392 363.18 267.968 363.18C269.363 363.18 270.106 362.212 270.602 360.118C271.255 357.574 270.849 356.043 268.013 353.026C264.635 349.424 263.307 347.42 264.5 342.692C265.626 338.099 268.485 335.983 273.213 335.983C280.733 335.983 281.093 340.666 280.125 344.606L280.148 344.583ZM287.735 367.323H281.251L288.186 341.521H283.3L284.718 336.433H301.041L299.645 341.521H294.715L287.758 367.323H287.735ZM304.103 367.773C297.867 367.773 295.728 364.441 297.259 358.745L301.266 343.638C302.752 338.032 306.152 335.938 311.105 335.938C317.184 335.938 319.908 339.135 318.265 345.101L314.437 359.375C312.906 365.072 310.497 367.751 304.126 367.751L304.103 367.773ZM339.924 346.249C338.911 349.964 337.132 351.293 335.106 351.811C336.569 352.734 337.537 354.175 336.141 358.948C335.308 361.92 334.318 365.702 334.16 367.323H327.789C327.789 365.927 328.667 362.64 329.972 357.822C330.805 354.76 330.513 353.972 328.396 353.972H327.473L323.871 367.3H317.387L325.695 336.411H333.62C339.338 336.411 341.815 339.09 340.397 344.426L339.924 346.227V346.249ZM361.92 345.124L358.093 359.398C356.562 365.094 354.153 367.773 347.781 367.773C341.41 367.773 339.406 364.441 340.937 358.745L344.945 343.638C346.431 338.032 349.83 335.938 354.783 335.938C360.862 335.938 363.587 339.135 361.943 345.101L361.92 345.124Z" fill="#F0F0F0"/>
<path d="M114.475 333H367.475V370H100.475L114.475 333Z" fill="#F0F0F0"/>
</svg>
